<svg xmlns="http://www.w3.org/2000/svg" width="1200" height="675" viewBox="0 0 1200 675">
  <style>
    .bg { fill: #ffffff; }
    .title { font: 700 32px -apple-system, BlinkMacSystemFont, 'Hiragino Sans', 'Noto Sans JP', sans-serif; fill: #172033; }
    .subtitle { font: 400 16px -apple-system, BlinkMacSystemFont, 'Hiragino Sans', 'Noto Sans JP', sans-serif; fill: #526173; }
    .label { font: 600 16px -apple-system, BlinkMacSystemFont, 'Hiragino Sans', 'Noto Sans JP', sans-serif; fill: #253247; }
    .small { font: 400 13px -apple-system, BlinkMacSystemFont, 'Hiragino Sans', 'Noto Sans JP', sans-serif; fill: #66758a; }
    .value { font: 700 24px -apple-system, BlinkMacSystemFont, 'Hiragino Sans', 'Noto Sans JP', sans-serif; fill: #172033; }
    .axis { stroke: #cbd5e1; stroke-width: 1; }
    .panel { fill: #f8fafc; stroke: #dce4ef; stroke-width: 1; rx: 8; }
    .bar-bg { fill: #e8eef6; rx: 7; }
    .note { font: 500 14px -apple-system, BlinkMacSystemFont, 'Hiragino Sans', 'Noto Sans JP', sans-serif; fill: #334155; }
  </style>
  <rect class="bg" width="1200" height="675"/>

  <text class="title" x="70" y="70">コラボは「供給」より「上振れ」に差が出た</text>
  <text class="subtitle" x="70" y="104">YouTube概要欄の既知チャンネル/handleから作ったコラボ候補。対象: 2025-06-01から2026-05-31まで。</text>
  <rect class="panel" x="60" y="135" width="1080" height="225"/>
  <text class="label" x="210" y="160">コラボ候補あり動画率</text>
  <text class="label" x="720" y="160">同一ライバー内のコラボ上振れ中央値</text>
  
  <text class="label" x="90" y="203">にじさんじ</text>
  
  <rect class="bar-bg" x="210" y="185" width="300" height="22"/>
  <rect x="210" y="185" width="269.0" height="22" fill="#2563eb" rx="11.0"/>

  <text class="value" x="530" y="206">12.3%</text>
  
  <rect class="bar-bg" x="720" y="185" width="300" height="22"/>
  <rect x="720" y="185" width="300.0" height="22" fill="#2563eb" rx="11.0"/>

  <text class="value" x="1040" y="206">+18.8%</text>

  <text class="label" x="90" y="273">ホロライブ</text>
  
  <rect class="bar-bg" x="210" y="255" width="300" height="22"/>
  <rect x="210" y="255" width="300.0" height="22" fill="#06b6d4" rx="11.0"/>

  <text class="value" x="530" y="276">13.7%</text>
  
  <rect class="bar-bg" x="720" y="255" width="300" height="22"/>
  <rect x="720" y="255" width="89.1" height="22" fill="#06b6d4" rx="11.0"/>

  <text class="value" x="1040" y="276">+5.6%</text>

  <text class="note" x="90" y="325">読み: コラボ動画の比率は近い。だが、コラボ動画が通常動画より伸びる度合いはにじさんじ側が大きい。</text>
  <text class="small" x="70" y="625">source: jackojacko05.nijiholo.article_org_supply / article_owner_uplift</text>

</svg>
